<?xml version='1.0' encoding='iso-8859-1'?>
<svg version="1.1" xmlns="http://www.w3.org/2000/svg" viewBox="0 0 451.637 451.637" xmlns:xlink="http://www.w3.org/1999/xlink" enable-background="new 0 0 451.637 451.637">
  <g>
    <g>
      <g>
        <path d="m411.714,355.522c-6.042,0-10.955-4.913-10.955-10.95 0-2.509-2.037-4.547-4.542-4.547-2.514,0-4.536,2.037-4.536,4.547 0,6.037-4.923,10.95-10.965,10.95-6.047,0-10.96-4.913-10.96-10.95 0-2.509-2.027-4.547-4.542-4.547-2.509,0-4.547,2.037-4.547,4.547 0,6.037-4.908,10.95-10.95,10.95-6.037,0-10.955-4.913-10.955-10.95 0-2.509-2.032-4.547-4.547-4.547-2.504,0-4.542,2.037-4.542,4.547 0,6.037-4.913,10.95-10.96,10.95-2.504,0-4.531,2.032-4.531,4.547 0,2.509 2.027,4.542 4.531,4.542 6.278,0 11.828-2.961 15.501-7.492 3.678,4.531 9.229,7.492 15.501,7.492 6.288,0 11.823-2.961 15.496-7.492 3.683,4.531 9.224,7.492 15.501,7.492 6.283,0 11.818-2.961 15.501-7.492 3.668,4.531 9.224,7.492 15.496,7.492 2.509,0 4.536-2.032 4.536-4.542 0.006-2.514-2.021-4.547-4.531-4.547z"/>
        <path d="m86.422,357.118c3.668,4.531 9.219,7.492 15.496,7.492 6.273,0 11.818-2.961 15.501-7.492 3.668,4.531 9.224,7.492 15.501,7.492 2.504,0 4.531-2.032 4.531-4.542s-2.027-4.547-4.531-4.547c-6.047,0-10.96-4.913-10.96-10.95 0-2.509-2.037-4.547-4.542-4.547-2.514,0-4.547,2.037-4.547,4.547 0,6.037-4.913,10.95-10.955,10.95-6.042,0-10.95-4.913-10.95-10.95 0-2.509-2.037-4.547-4.547-4.547-2.514,0-4.542,2.037-4.542,4.547 0,6.037-4.913,10.95-10.96,10.95-6.037,0-10.955-4.913-10.955-10.95 0-2.509-2.032-4.547-4.547-4.547-2.504,0-4.542,2.037-4.542,4.547 0,6.037-4.903,10.95-10.955,10.95-2.509,0-4.536,2.032-4.536,4.547 0,2.509 2.027,4.542 4.536,4.542 6.273,0 11.823-2.961 15.496-7.492 3.678,4.531 9.229,7.492 15.501,7.492 6.283,0 11.818-2.96 15.507-7.492z"/>
        <path d="m375.237,396.266c-6.047,0-10.965-4.913-10.965-10.95 0-2.509-2.022-4.542-4.547-4.542-2.504,0-4.536,2.032-4.536,4.542 0,6.037-4.913,10.95-10.96,10.95-6.032,0-10.95-4.913-10.95-10.95 0-2.509-2.022-4.542-4.542-4.542-2.509,0-4.547,2.032-4.547,4.542 0,6.037-4.913,10.95-10.955,10.95-6.042,0-10.955-4.913-10.955-10.95 0-2.509-2.027-4.542-4.547-4.542-2.504,0-4.547,2.032-4.547,4.542 0,6.037-4.913,10.95-10.945,10.95-2.509,0-4.547,2.037-4.547,4.547s2.037,4.542 4.547,4.542c6.278,0 11.823-2.961 15.491-7.492 3.678,4.526 9.229,7.492 15.501,7.492 6.278,0 11.823-2.961 15.501-7.492 3.673,4.531 9.219,7.492 15.491,7.492 6.283,0 11.823-2.961 15.496-7.492 3.678,4.526 9.229,7.492 15.511,7.492 2.514,0 4.536-2.032 4.536-4.542 0.01-2.51-2.017-4.547-4.531-4.547z"/>
        <path d="m320.734,442.549c-6.047,0-10.96-4.913-10.96-10.955 0-2.509-2.027-4.547-4.542-4.547-2.509,0-4.547,2.037-4.547,4.547 0,6.042-4.908,10.955-10.95,10.955-6.037,0-10.955-4.913-10.955-10.955 0-2.509-2.032-4.547-4.547-4.547-2.504,0-4.536,2.037-4.536,4.547 0,6.042-4.913,10.955-10.965,10.955-6.027,0-10.955-4.913-10.955-10.955 0-2.509-2.022-4.547-4.542-4.547-2.509,0-4.547,2.037-4.547,4.547 0,6.042-4.913,10.955-10.945,10.955-0.537,0-1.034,0.13-1.516,0.306-0.487-0.171-0.974-0.306-1.526-0.306-6.037,0-10.94-4.913-10.94-10.955 0-2.509-2.032-4.547-4.542-4.547-2.524,0-4.547,2.037-4.547,4.547 0,6.042-4.923,10.955-10.965,10.955-6.042,0-10.945-4.913-10.945-10.955 0-2.509-2.037-4.547-4.547-4.547-2.519,0-4.547,2.037-4.547,4.547 0,6.042-4.913,10.955-10.945,10.955-6.052,0-10.965-4.913-10.965-10.955 0-2.509-2.037-4.547-4.547-4.547s-4.542,2.037-4.542,4.547c0,6.042-4.908,10.955-10.95,10.955-2.509,0-4.542,2.032-4.542,4.542s2.032,4.547 4.542,4.547c6.283,0 11.813-2.961 15.491-7.492 3.683,4.531 9.224,7.492 15.511,7.492 6.273,0 11.813-2.961 15.491-7.492 3.678,4.531 9.229,7.492 15.491,7.492 6.283,0 11.818-2.961 15.511-7.492 3.663,4.531 9.208,7.492 15.481,7.492 0.547,0 1.039-0.135 1.526-0.311 0.482,0.171 0.974,0.311 1.515,0.311 6.273,0 11.823-2.961 15.491-7.492 3.683,4.531 9.229,7.492 15.496,7.492 6.278,0 11.828-2.961 15.501-7.492 3.678,4.531 9.229,7.492 15.501,7.492 6.278,0 11.813-2.961 15.496-7.492 3.683,4.531 9.214,7.492 15.501,7.492 2.504,0 4.536-2.037 4.536-4.547 0.012-2.51-2.02-4.542-4.524-4.542z"/>
        <path d="m138.396,405.354c6.273,0 11.818-2.961 15.501-7.492 3.673,4.526 9.214,7.492 15.501,7.492 2.509,0 4.547-2.032 4.547-4.542s-2.037-4.547-4.547-4.547c-6.042,0-10.955-4.913-10.955-10.95 0-2.509-2.042-4.542-4.547-4.542-2.519,0-4.547,2.032-4.547,4.542 0,6.037-4.913,10.95-10.955,10.95s-10.955-4.913-10.955-10.95c0-2.509-2.037-4.542-4.547-4.542s-4.542,2.032-4.542,4.542c0,6.037-4.913,10.95-10.95,10.95-6.042,0-10.96-4.913-10.96-10.95 0-2.509-2.022-4.542-4.536-4.542s-4.536,2.032-4.536,4.542c0,6.037-4.923,10.95-10.965,10.95-2.514,0-4.547,2.037-4.547,4.547s2.032,4.542 4.547,4.542c6.283,0 11.818-2.961 15.501-7.492 3.668,4.531 9.214,7.492 15.496,7.492 6.273,0 11.823-2.961 15.491-7.492 3.682,4.531 9.227,7.492 15.505,7.492z"/>
        <circle cx="154.349" cy="186.357" r="7.297"/>
        <circle cx="192.221" cy="168.839" r="7.297"/>
        <circle cx="257.238" cy="168.839" r="7.297"/>
        <circle cx="305.232" cy="186.357" r="7.297"/>
        <path d="m357.683,267.241l-130.148-53.173c-1.099-0.452-2.333-0.452-3.432,0l-130.149,53.173c-1.38,0.562-2.399,1.761-2.725,3.217-0.316,1.455 0.09,2.971 1.094,4.07l130.153,141.429c0.868,0.938 2.073,1.465 3.347,1.465 1.265,0 2.479-0.532 3.347-1.465l130.153-141.429c1.004-1.094 1.41-2.615 1.094-4.07-0.335-1.455-1.349-2.655-2.734-3.217zm-131.865,138.926l-88.216-95.859 87.629-33.467 88.497,33.803-87.91,95.523zm94.529-102.719l-93.495-35.715c-1.034-0.401-2.198-0.401-3.242,0l-92.627,35.379-27.545-29.929 122.385-49.997 122.385,49.997-27.861,30.265z"/>
        <path d="m97.386,246.466l128.432-52.466 128.432,52.466c0.572,0.231 1.149,0.341 1.721,0.341 1.781,0 3.493-1.064 4.205-2.83 0.943-2.318-0.161-4.973-2.489-5.922l-25.949-10.604c0.115,0.01 0.206,0.065 0.321,0.065 2.509,0 4.536-2.032 4.536-4.547v-54.277c0-1.591-0.828-3.061-2.183-3.884-1.892-1.149-36.448-21.925-72.639-31.886v-40.958l0,0c0-14.357-7.884-24.339-21.704-28.388 6.167-11.502 2.052-25.929-9.379-32.358-2.027-1.144-4.215-1.962-6.509-2.454-0.597-10.287-6.378-19.742-15.481-24.865-12.666-7.126-28.403-4.19-37.787,6.413-4.175-2.173-8.963-2.675-13.524-1.4-4.757,1.335-8.727,4.446-11.151,8.762-2.439,4.316-3.051,9.324-1.721,14.091 1.345,4.772 4.461,8.742 8.772,11.171 4.165,2.344 8.937,2.951 13.419,1.847 2.735,5.234 6.87,9.565 11.979,12.44 2.183,1.234 4.963,0.462 6.188-1.726 1.234-2.183 0.462-4.958-1.731-6.193-4.572-2.579-7.919-6.664-9.69-11.798-0.442-1.27-1.41-2.283-2.66-2.765-1.265-0.482-2.655-0.386-3.839,0.261-2.921,1.616-6.358,1.611-9.198,0.01-2.208-1.24-3.799-3.267-4.491-5.701-0.662-2.429-0.361-4.983 0.893-7.186 1.224-2.198 3.252-3.784 5.676-4.461 2.419-0.682 4.978-0.376 7.211,0.883 0.587,0.321 1.149,0.738 1.756,1.305 0.974,0.918 2.318,1.355 3.658,1.184 1.345-0.166 2.539-0.923 3.262-2.052 6.142-9.57 18.663-12.716 28.519-7.166 7.297,4.1 11.537,12.169 10.829,20.555-0.11,1.24 0.301,2.469 1.134,3.402 0.818,0.933 1.992,1.48 3.242,1.526 2.499,0.09 4.787,0.703 6.795,1.832 7.201,4.055 9.766,13.208 5.711,20.409-0.422,0.758-0.527,1.581-0.502,2.389-2.153-0.226-4.381-0.376-6.745-0.376-23.184,0-37.04,11.366-37.04,30.406l0,0v42.715c-33.903,10.458-64.806,29.046-66.597,30.135-1.355,0.823-2.193,2.293-2.193,3.884v54.282c0,1.711 0.984,3.141 2.389,3.919l-27.32,11.164c-2.328,0.943-3.437,3.603-2.489,5.922 0.953,2.318 3.603,3.432 5.931,2.484zm127.323-175.825c10.453-1.42109e-14 27.977,2.77 27.977,21.318l0,0v13.283c-6.75-5.45-16.676-8.857-27.977-8.857-11.276,0-21.207,3.402-27.942,8.852v-13.278l0,0c0.001-18.548 17.504-21.318 27.942-21.318zm-27.941,51.889c0-9.244 12.802-17.052 27.942-17.052 15.16,0 27.977,7.813 27.977,17.052v8.14c-8.496-1.862-16.942-3.001-24.941-3.001-9.886,0-20.469,1.726-30.983,4.431v-9.57h0.005zm-68.785,100.445v-51.678c11.1-6.403 61.995-34.541 99.768-34.541 37.762,0 88.667,28.132 99.753,34.541v51.678c0,1.39 0.672,2.594 1.666,3.427l-101.635-41.511c-1.099-0.452-2.333-0.452-3.432,0l-96.386,39.373c0.125-0.425 0.266-0.837 0.266-1.289z"/>
      </g>
    </g>
  </g>
</svg>
